<svg width="170" height="233" viewBox="0 0 170 233" fill="none" xmlns="http://www.w3.org/2000/svg">
<rect width="170" height="170" fill="white"/>
<path d="M140.139 76.1099L96.62 32.413C93.6205 29.4082 89.6359 27.75 85.3945 27.75C81.1526 27.75 77.1625 29.4082 74.1695 32.413L30.6431 76.1099C24.4523 82.3249 24.4523 92.4333 30.6431 98.6483L74.1695 142.345C77.2614 145.449 81.3249 147.001 85.3945 147.001C89.4581 147.001 93.5276 145.449 96.62 142.345L140.139 98.6483C143.238 95.5438 144.784 91.4583 144.784 87.3788C144.784 83.2999 143.238 79.2144 140.139 76.1099ZM135.006 93.4881L91.4794 137.185C89.8604 138.816 87.6935 139.712 85.3945 139.712C83.0885 139.712 80.928 138.816 79.3031 137.185L35.7836 93.4951C32.4275 90.1188 32.4275 84.6404 35.7836 81.2706L79.3031 37.5737C80.935 35.9424 83.0954 35.0467 85.3945 35.0467C87.6935 35.0467 89.8545 35.9419 91.4794 37.5737L135.006 81.2706C138.362 84.6399 138.362 90.1188 135.006 93.4881Z" fill="url(#paint0_linear)"/>
<path d="M117.304 43.3008L117.467 47.0307C126.251 46.9918 127.304 54.5817 126.106 60.7009C123.794 72.513 112.996 79.6431 94.9938 94.9103C87.1762 101.54 80.1553 113.104 88.5199 127.298C91.7996 120.576 101.88 112.744 117.507 99.1668C132.651 86.0102 137.792 78.4228 138.244 65.8462C138.667 54.0461 130.913 44.6438 117.304 43.3008Z" fill="url(#paint1_linear)"/>
<path d="M100.761 75.207C76.3685 96.4388 53.984 107.893 52.1211 123.195C50.5886 135.811 60.9413 144.307 71.6382 139.804L74.129 142.305C56.984 151.405 31.7059 136.852 34.7586 111.303C37.6393 87.1862 63.5583 72.3948 88.6839 53.0671C102.043 42.7931 108.109 35.656 104.395 29.0894C102.46 25.6532 96.7052 24.6653 90.4812 28.5852C88.9218 28.0545 87.283 27.7693 85.592 27.7558C96.4737 18.377 108.34 22.2041 113.394 26.9798C121.593 34.7139 125.161 53.9822 100.761 75.207Z" fill="url(#paint2_linear)"/>
<path d="M88.6673 123.269C82.9918 110.467 90.8084 101.069 96.2739 96.4334C99.0682 94.064 101.645 91.927 104.137 89.8603C117.747 78.5719 125.964 71.7584 128.052 61.0879C128.643 58.0702 129.161 52.4317 125.999 48.5727C125.52 47.9882 124.983 47.475 124.389 47.0352C132.085 50.182 136.579 57.003 136.264 65.7779C135.847 77.36 131.35 84.5126 116.212 97.6657C113.514 100.009 110.984 102.18 108.624 104.204C99.1755 112.309 92.3772 118.142 88.6673 123.269Z" fill="url(#paint3_linear)"/>
<path d="M62.9612 143.039C55.6756 143.04 48.3219 139.641 43.2896 133.947C38.0403 128.008 35.7089 120.051 36.7258 111.542C39.0343 92.2143 56.9081 79.0588 77.6045 63.8265C81.6214 60.8701 85.7754 57.8125 89.8891 54.6482C103.329 44.3118 110.732 36.2675 106.119 28.1091C104.717 25.622 101.87 24.1174 98.4793 24.0645C99.0227 24.0161 99.5697 23.9922 100.121 23.9922C105.441 23.9922 109.763 26.2853 112.035 28.4307C115.662 31.8519 117.675 37.1313 117.559 42.9149C117.419 49.9014 114.166 60.9145 99.4624 73.7051C92.3109 79.9295 85.2215 85.3949 78.9662 90.217C63.6587 102.018 51.5673 111.339 50.1525 122.956C49.457 128.68 50.9419 133.951 54.3338 137.798C57.0502 140.878 60.696 142.692 64.6945 142.977C64.1232 143.019 63.5449 143.039 62.9612 143.039Z" fill="url(#paint4_linear)"/>
<path d="M88.6673 123.269C82.9918 110.467 90.8084 101.069 96.2739 96.4334C99.0682 94.064 101.645 91.927 104.137 89.8603C117.747 78.5719 125.964 71.7584 128.052 61.0879C128.643 58.0702 129.161 52.4317 125.999 48.5727C125.52 47.9882 124.983 47.475 124.389 47.0352C132.085 50.182 136.579 57.003 136.264 65.7779C135.847 77.36 131.35 84.5126 116.212 97.6657C113.514 100.009 110.984 102.18 108.624 104.204C99.1755 112.309 92.3772 118.142 88.6673 123.269Z" fill="url(#paint5_linear)"/>
<path d="M62.9612 143.039C55.6756 143.04 48.3219 139.641 43.2896 133.947C38.0403 128.008 35.7089 120.051 36.7258 111.542C39.0343 92.2143 56.9081 79.0588 77.6045 63.8265C81.6214 60.8701 85.7754 57.8125 89.8891 54.6482C103.329 44.3118 110.732 36.2675 106.119 28.1091C104.717 25.622 101.87 24.1174 98.4793 24.0645C99.0227 24.0161 99.5697 23.9922 100.121 23.9922C105.441 23.9922 109.763 26.2853 112.035 28.4307C115.662 31.8519 117.675 37.1313 117.559 42.9149C117.419 49.9014 114.166 60.9145 99.4624 73.7051C92.3109 79.9295 85.2215 85.3949 78.9662 90.217C63.6587 102.018 51.5673 111.339 50.1525 122.956C49.457 128.68 50.9419 133.951 54.3338 137.798C57.0502 140.878 60.696 142.692 64.6945 142.977C64.1232 143.019 63.5449 143.039 62.9612 143.039Z" fill="url(#paint6_linear)"/>
<path d="M139.016 77.2363L95.4973 33.5409C92.7953 30.8344 89.2072 29.3438 85.3945 29.3438C81.5753 29.3438 77.9876 30.8339 75.2922 33.5399L31.7657 77.2363C29.0717 79.9413 27.5879 83.543 27.5879 87.3782C27.5879 91.2133 29.0717 94.815 31.7657 97.5195L75.2922 141.216C77.9832 143.917 81.5713 145.405 85.3945 145.405C89.2176 145.405 92.8048 143.917 95.4963 141.216L139.017 97.518C141.711 94.819 143.195 91.2178 143.195 87.3777C143.195 83.5386 141.711 79.9373 139.016 77.2363ZM136.129 94.6145L92.6051 138.309C90.6885 140.241 88.1277 141.306 85.395 141.306C82.6657 141.306 80.1034 140.242 78.1804 138.311L34.6589 94.6205C30.6872 90.6248 30.6877 84.1295 34.6599 80.1418L78.1819 36.443C80.1113 34.5134 82.6732 33.4507 85.395 33.4507C88.1202 33.4507 90.6801 34.5139 92.6026 36.4449L136.129 80.1418C138.053 82.0728 139.112 84.6422 139.112 87.3782C139.112 90.1136 138.053 92.6835 136.129 94.6145Z" fill="url(#paint7_linear)"/>
<path d="M139.016 77.2363L95.4973 33.5409C92.7953 30.8344 89.2072 29.3438 85.3945 29.3438C81.5753 29.3438 77.9876 30.8339 75.2922 33.5399L31.7657 77.2363C29.0717 79.9413 27.5879 83.543 27.5879 87.3782C27.5879 91.2133 29.0717 94.815 31.7657 97.5195L75.2922 141.216C77.9832 143.917 81.5713 145.405 85.3945 145.405C89.2176 145.405 92.8048 143.917 95.4963 141.216L139.017 97.518C141.711 94.819 143.195 91.2178 143.195 87.3777C143.195 83.5386 141.711 79.9373 139.016 77.2363ZM136.129 94.6145L92.6051 138.309C90.6885 140.241 88.1277 141.306 85.395 141.306C82.6657 141.306 80.1034 140.242 78.1804 138.311L34.6589 94.6205C30.6872 90.6248 30.6877 84.1295 34.6599 80.1418L78.1819 36.443C80.1113 34.5134 82.6732 33.4507 85.395 33.4507C88.1202 33.4507 90.6801 34.5139 92.6026 36.4449L136.129 80.1418C138.053 82.0728 139.112 84.6422 139.112 87.3782C139.112 90.1136 138.053 92.6835 136.129 94.6145Z" fill="url(#paint8_linear)"/>
<path d="M3.9146 202.324L11.4281 221.576L18.9416 202.324H22.872V225.918H19.8413V216.73L20.1254 206.813L12.5804 225.918H10.26L2.73075 206.861L3.03065 216.73V225.918H0V202.324H3.9146Z" fill="#28243A"/>
<path d="M26.6069 216.99C26.6069 215.272 26.9331 213.727 27.5856 212.355C28.2485 210.983 29.164 209.924 30.3321 209.179C31.5107 208.433 32.8524 208.061 34.3572 208.061C36.6828 208.061 38.5612 208.887 39.9923 210.54C41.434 212.193 42.1548 214.391 42.1548 217.135V217.346C42.1548 219.053 41.8338 220.587 41.1919 221.948C40.5606 223.299 39.6503 224.352 38.4612 225.108C37.2826 225.864 35.9251 226.243 34.3888 226.243C32.0737 226.243 30.1953 225.416 28.7536 223.763C27.3225 222.11 26.6069 219.923 26.6069 217.2V216.99ZM29.5429 217.346C29.5429 219.291 29.9796 220.852 30.853 222.029C31.7369 223.207 32.9155 223.796 34.3888 223.796C35.8725 223.796 37.0511 223.201 37.9245 222.013C38.7979 220.814 39.2346 219.139 39.2346 216.99C39.2346 215.067 38.7874 213.511 37.8929 212.323C37.009 211.123 35.8304 210.524 34.3572 210.524C32.9155 210.524 31.7527 211.113 30.8688 212.29C29.9848 213.468 29.5429 215.153 29.5429 217.346Z" fill="#28243A"/>
<path d="M48.1943 208.385L48.289 210.589C49.5939 208.903 51.2986 208.061 53.4033 208.061C57.0127 208.061 58.8332 210.151 58.8647 214.332V225.918H55.9446V214.316C55.9341 213.052 55.6499 212.117 55.0922 211.512C54.545 210.907 53.6874 210.605 52.5193 210.605C51.5722 210.605 50.7409 210.864 50.0253 211.383C49.3098 211.901 48.752 212.582 48.3522 213.424V225.918H45.432V208.385H48.1943Z" fill="#28243A"/>
<path d="M69.9711 226.243C67.6561 226.243 65.7724 225.465 64.3202 223.909C62.868 222.343 62.1419 220.252 62.1419 217.638V217.087C62.1419 215.347 62.4629 213.797 63.1048 212.436C63.7572 211.064 64.6622 209.994 65.8198 209.227C66.9878 208.45 68.2506 208.061 69.6081 208.061C71.8285 208.061 73.5542 208.811 74.7855 210.313C76.0167 211.815 76.6323 213.965 76.6323 216.763V218.01H65.0621C65.1042 219.739 65.5935 221.138 66.5301 222.208C67.4772 223.266 68.6768 223.796 70.129 223.796C71.1602 223.796 72.0337 223.58 72.7492 223.147C73.4648 222.715 74.0909 222.143 74.6276 221.43L76.4113 222.856C74.9801 225.114 72.8334 226.243 69.9711 226.243ZM69.6081 210.524C68.4295 210.524 67.4403 210.967 66.6406 211.853C65.8408 212.728 65.3462 213.959 65.1568 215.547H73.7121V215.32C73.6279 213.797 73.228 212.62 72.5125 211.788C71.7969 210.945 70.8288 210.524 69.6081 210.524Z" fill="#28243A"/>
<path d="M85.0079 221.527L88.9856 208.385H92.111L85.2447 228.625C84.1818 231.542 82.4929 233 80.1778 233L79.6253 232.951L78.5362 232.741V230.31L79.3254 230.375C80.3146 230.375 81.0828 230.17 81.63 229.759C82.1877 229.348 82.6455 228.598 83.0032 227.507L83.6504 225.724L77.5575 208.385H80.746L85.0079 221.527Z" fill="#28243A"/>
<path d="M106.106 219.728C106.106 218.81 105.79 218.108 105.159 217.622C104.528 217.125 103.391 216.606 101.749 216.066C100.108 215.515 98.8082 214.975 97.8506 214.445C95.2409 212.998 93.936 211.048 93.936 208.595C93.936 207.321 94.2833 206.186 94.9778 205.192C95.6828 204.188 96.6878 203.404 97.9927 202.843C99.308 202.281 100.781 202 102.412 202C104.054 202 105.517 202.308 106.8 202.924C108.084 203.529 109.079 204.388 109.784 205.5C110.499 206.613 110.857 207.877 110.857 209.292H106.122C106.122 208.212 105.79 207.375 105.127 206.78C104.464 206.175 103.533 205.873 102.333 205.873C101.176 205.873 100.276 206.127 99.6343 206.635C98.9924 207.132 98.6714 207.791 98.6714 208.612C98.6714 209.379 99.045 210.021 99.7921 210.54C100.55 211.059 101.66 211.545 103.123 211.998C105.817 212.83 107.779 213.862 109.01 215.094C110.242 216.325 110.857 217.859 110.857 219.696C110.857 221.738 110.105 223.342 108.6 224.509C107.095 225.665 105.069 226.243 102.523 226.243C100.755 226.243 99.1449 225.913 97.6927 225.254C96.2406 224.584 95.1304 223.671 94.3622 222.515C93.6045 221.359 93.2257 220.02 93.2257 218.497H97.9769C97.9769 221.1 99.4922 222.402 102.523 222.402C103.649 222.402 104.528 222.17 105.159 221.705C105.79 221.23 106.106 220.571 106.106 219.728Z" fill="#28243A"/>
<path d="M126.667 221.057H118.365L116.786 225.918H111.751L120.306 202.324H124.694L133.297 225.918H128.262L126.667 221.057ZM119.643 217.119H125.389L122.5 208.288L119.643 217.119Z" fill="#28243A"/>
<path d="M142.32 220.068L147.529 202.324H152.801L144.798 225.918H139.857L131.886 202.324H137.142L142.32 220.068Z" fill="#28243A"/>
<path d="M168.422 215.693H159.33V222.013H170V225.918H154.594V202.324H169.968V206.262H159.33V211.885H168.422V215.693Z" fill="#28243A"/>
<defs>
<linearGradient id="paint0_linear" x1="102.774" y1="38.7876" x2="70.1618" y2="129.248" gradientUnits="userSpaceOnUse">
<stop stop-color="#534B78"/>
<stop offset="0.2355" stop-color="#474066"/>
<stop offset="0.7298" stop-color="#302B45"/>
<stop offset="1" stop-color="#272338"/>
</linearGradient>
<linearGradient id="paint1_linear" x1="81.4276" y1="109.618" x2="129.172" y2="59.7838" gradientUnits="userSpaceOnUse">
<stop stop-color="#3267C6"/>
<stop offset="0.9812" stop-color="#34A5D6"/>
</linearGradient>
<linearGradient id="paint2_linear" x1="44.6916" y1="122.026" x2="115.488" y2="48.1314" gradientUnits="userSpaceOnUse">
<stop stop-color="#3267C6"/>
<stop offset="0.9812" stop-color="#14B2F7"/>
</linearGradient>
<linearGradient id="paint3_linear" x1="66.3822" y1="69.0308" x2="105.798" y2="84.7357" gradientUnits="userSpaceOnUse">
<stop stop-color="white"/>
<stop offset="1" stop-color="white" stop-opacity="0"/>
</linearGradient>
<linearGradient id="paint4_linear" x1="-9.41741" y1="63.7306" x2="62.1849" y2="79.2357" gradientUnits="userSpaceOnUse">
<stop stop-color="#42A3E4"/>
<stop offset="1" stop-color="white" stop-opacity="0"/>
</linearGradient>
<linearGradient id="paint5_linear" x1="176.016" y1="89.4097" x2="128.108" y2="86.4971" gradientUnits="userSpaceOnUse">
<stop stop-color="white"/>
<stop offset="1" stop-color="white" stop-opacity="0"/>
</linearGradient>
<linearGradient id="paint6_linear" x1="150.541" y1="99.8241" x2="96.7646" y2="87.2728" gradientUnits="userSpaceOnUse">
<stop stop-color="white"/>
<stop offset="1" stop-color="white" stop-opacity="0"/>
</linearGradient>
<linearGradient id="paint7_linear" x1="-19.2954" y1="57.5978" x2="40.545" y2="74.4865" gradientUnits="userSpaceOnUse">
<stop stop-color="white"/>
<stop offset="1" stop-color="white" stop-opacity="0"/>
</linearGradient>
<linearGradient id="paint8_linear" x1="187.656" y1="101.555" x2="133.352" y2="94.0835" gradientUnits="userSpaceOnUse">
<stop stop-color="white"/>
<stop offset="1" stop-color="white" stop-opacity="0"/>
</linearGradient>
</defs>
</svg>
